<?xml version="1.0" encoding="UTF-8" standalone="no"?>
<svg
   xmlns:dc="http://purl.org/dc/elements/1.1/"
   xmlns:cc="http://creativecommons.org/ns#"
   xmlns:rdf="http://www.w3.org/1999/02/22-rdf-syntax-ns#"
   xmlns:svg="http://www.w3.org/2000/svg"
   xmlns="http://www.w3.org/2000/svg"
   xmlns:sodipodi="http://sodipodi.sourceforge.net/DTD/sodipodi-0.dtd"
   xmlns:inkscape="http://www.inkscape.org/namespaces/inkscape"
   width="210mm"
   height="297mm"
   viewBox="0 0 210 297"
   version="1.1"
   id="svg8"
   inkscape:version="1.0.1 (c497b03c, 2020-09-10)"
   sodipodi:docname="jigsawlogosvg.svg"
   inkscape:export-filename="/Users/tomaszkrzewina/Desktop/coding/HiFranca/assets/img/logos/jigsawlogosvg.png"
   inkscape:export-xdpi="0.25184399"
   inkscape:export-ydpi="0.25184399">
  <defs
     id="defs2" />
  <sodipodi:namedview
     id="base"
     pagecolor="#ffffff"
     bordercolor="#666666"
     borderopacity="1.0"
     inkscape:pageopacity="0.0"
     inkscape:pageshadow="2"
     inkscape:zoom="0.38369202"
     inkscape:cx="494.44507"
     inkscape:cy="510.58645"
     inkscape:document-units="mm"
     inkscape:current-layer="layer1"
     inkscape:document-rotation="0"
     showgrid="false"
     inkscape:snap-global="false"
     inkscape:window-width="1366"
     inkscape:window-height="742"
     inkscape:window-x="0"
     inkscape:window-y="26"
     inkscape:window-maximized="0" />
  <metadata
     id="metadata5">
    <rdf:RDF>
      <cc:Work
         rdf:about="">
        <dc:format>image/svg+xml</dc:format>
        <dc:type
           rdf:resource="http://purl.org/dc/dcmitype/StillImage" />
        <dc:title />
      </cc:Work>
    </rdf:RDF>
  </metadata>
  <g
     inkscape:label="Layer 1"
     inkscape:groupmode="layer"
     id="layer1">
    <path
       style="opacity:1;fill:none;stroke:#d1d8ff;stroke-width:9;stroke-linecap:round;stroke-linejoin:round;stroke-miterlimit:4;stroke-dasharray:none;stroke-opacity:1"
       d="M 7.9440083,253.65792 C 39.480326,243.89538 30.10228,233.4772 95.001022,253.32791 c 0,0 56.890378,6.13456 26.851088,-24.4529 -17.52623,-17.84607 10.11666,-23.35106 10.11666,-23.35106 l 38.56002,2.27283 -9.05127,-43.88105 c 0,0 -3.66953,-5.05942 23.41852,-0.14642 16.99207,3.08193 24.19784,-19.51263 15.8816,-37.97805 -7.34626,-16.31164 -20.36794,-1.72191 -20.36794,-1.72191 0,0 -14.94898,23.60365 -17.32831,6.74396 -5.1369,-36.399834 5.32758,-61.182745 5.32758,-61.182745 0.49681,-6.260401 -20.29108,-4.423901 -47.88056,0 0,0 -16.37498,-0.441802 -5.05833,-22.547349 27.6732,-52.7486298 -52.405254,-52.6213726 -25.639469,-3.957466 8.075417,15.9098 -6.527586,27.127575 -6.527586,27.127575 -14.775147,-0.140763 -31.595607,-2.785651 -44.69534,-4.838395 5.077696,15.620391 15.519126,34.70461 13.156293,46.07933 0,0 -7.842112,15.111 -17.417841,0.76644 -15.296784,-22.914756 -53.531238,72.95156 0.549441,30.32131 7.369321,-5.80904 24.754413,-0.40062 21.410787,9.08861 -16.95858,48.12856 -5.978141,56.0516 -5.978141,56.0516 l 44.303064,-4.8384 c 6.549152,-3.83004 7.476912,16.41428 -3.510499,28.15488 -15.966227,17.0607 -25.272451,48.51195 -11.956925,53.33431 59.905676,21.69556 75.299756,-17.90593 122.420866,-21.22195"
       id="path833"
       sodipodi:nodetypes="ccscccsscscccccccsssccssc"
       inkscape:export-xdpi="0.25184399"
       inkscape:export-ydpi="0.25184399" />
  </g>
</svg>
