<?xml version="1.0" encoding="UTF-8" standalone="no"?>
<svg
   xmlns:dc="http://purl.org/dc/elements/1.1/"
   xmlns:cc="http://creativecommons.org/ns#"
   xmlns:rdf="http://www.w3.org/1999/02/22-rdf-syntax-ns#"
   xmlns:svg="http://www.w3.org/2000/svg"
   xmlns="http://www.w3.org/2000/svg"
   xmlns:sodipodi="http://sodipodi.sourceforge.net/DTD/sodipodi-0.dtd"
   xmlns:inkscape="http://www.inkscape.org/namespaces/inkscape"
   width="297mm"
   height="210mm"
   viewBox="0 0 297 210"
   version="1.1"
   id="svg1444"
   inkscape:version="1.0.1 (c497b03c, 2020-09-10)"
   sodipodi:docname="jigsawlogo90d.svg">
  <defs
     id="defs1438">
    <inkscape:perspective
       sodipodi:type="inkscape:persp3d"
       inkscape:vp_x="0 : 105 : 1"
       inkscape:vp_y="0 : 1000 : 0"
       inkscape:vp_z="297 : 105 : 1"
       inkscape:persp3d-origin="148.5 : 70 : 1"
       id="perspective2007" />
  </defs>
  <sodipodi:namedview
     id="base"
     pagecolor="#ffffff"
     bordercolor="#666666"
     borderopacity="1.0"
     inkscape:pageopacity="0.0"
     inkscape:pageshadow="2"
     inkscape:zoom="0.35807016"
     inkscape:cx="449.95915"
     inkscape:cy="549.95017"
     inkscape:document-units="mm"
     inkscape:current-layer="layer1"
     inkscape:document-rotation="0"
     showgrid="false"
     inkscape:window-width="1366"
     inkscape:window-height="633"
     inkscape:window-x="0"
     inkscape:window-y="23"
     inkscape:window-maximized="0" />
  <metadata
     id="metadata1441">
    <rdf:RDF>
      <cc:Work
         rdf:about="">
        <dc:format>image/svg+xml</dc:format>
        <dc:type
           rdf:resource="http://purl.org/dc/dcmitype/StillImage" />
        <dc:title></dc:title>
      </cc:Work>
    </rdf:RDF>
  </metadata>
  <g
     inkscape:label="Layer 1"
     inkscape:groupmode="layer"
     id="layer1">
    <path
       style="opacity:1;fill:none;stroke:#d1d8ff;stroke-width:8.99999;stroke-linecap:round;stroke-linejoin:round;stroke-miterlimit:4;stroke-dasharray:none;stroke-opacity:1"
       d="M 47.005075,7.3543889 C 55.860563,38.568281 66.54269,29.642981 44.842704,92.80818 c 0,0 -7.76053,55.67257 23.673607,27.00894 18.340053,-16.72361 23.051303,10.55489 23.051303,10.55489 l -3.375723,37.7851 44.121129,-7.70814 c 0,0 5.16227,-3.46604 -0.52406,22.9888 -3.56704,16.59486 18.81143,24.27249 37.5069,16.60492 16.51488,-6.77325 2.30426,-19.94465 2.30426,-19.94465 0,0 -23.16546,-15.30449 -6.24497,-17.18811 36.5311,-4.06664 61.00368,6.86798 61.00368,6.86798 6.24346,0.65532 5.00286,-19.79684 1.3707,-46.99395 0,0 0.91039,-16.05992 22.68237,-4.36063 51.93352,28.57386 54.09877,-50.025158 4.68974,-25.058675 -16.13407,7.499675 -26.92893,-7.133431 -26.92893,-7.133431 0.56368,-14.497785 3.68895,-30.935915 6.11582,-43.738074 -15.75897,4.5652 -35.13382,14.302044 -46.43596,11.678231 0,0 -14.87995,-8.101706 -0.26748,-17.115831 23.34272,-14.39965 -71.38743,-54.49429 -30.32388,-0.273022 5.59555,7.388477 -0.30821,24.306764 -9.6976,20.770837 C 99.941425,39.619498 91.707477,50.184349 91.707477,50.184349 l 3.568009,43.612293 C 98.916374,100.32714 78.654281,100.69538 67.233328,89.596901 50.637102,73.469296 19.465908,63.492846 14.264465,76.432606 -9.1366469,134.64778 30.006971,150.81769 31.972587,197.15507"
       id="path833"
       sodipodi:nodetypes="ccscccsscscccccccsssccssc"
       inkscape:export-xdpi="0.25184399"
       inkscape:export-ydpi="0.25184399" />
  </g>
</svg>
